<mxfile host="app.diagrams.net" agent="Mozilla/5.0 (Windows NT 10.0; Win64; x64) AppleWebKit/537.36 (KHTML, like Gecko) Chrome/135.0.0.0 Safari/537.36" version="26.2.14">
  <diagram name="Page-1" id="lWEP7WfRvGb3IAOtndjp">
    <mxGraphModel grid="1" page="1" gridSize="10" guides="1" tooltips="1" connect="1" arrows="1" fold="1" pageScale="1" pageWidth="850" pageHeight="1100" math="0" shadow="0">
      <root>
        <mxCell id="0" />
        <mxCell id="1" parent="0" />
        <mxCell id="_b37jL2RU1yT6n0CQH7f-1" value="Passageiro" style="shape=umlActor;verticalLabelPosition=bottom;verticalAlign=top;html=1;" vertex="1" parent="1">
          <mxGeometry x="80" y="460" width="30" height="60" as="geometry" />
        </mxCell>
        <mxCell id="_b37jL2RU1yT6n0CQH7f-2" value="Atendente de Check-in" style="shape=umlActor;verticalLabelPosition=bottom;verticalAlign=top;html=1;" vertex="1" parent="1">
          <mxGeometry x="730" y="460" width="30" height="60" as="geometry" />
        </mxCell>
        <mxCell id="_b37jL2RU1yT6n0CQH7f-5" value="Consultar Voos DisponÃ­veis" style="ellipse;whiteSpace=wrap;html=1;" vertex="1" parent="1">
          <mxGeometry x="355" y="455" width="140" height="70" as="geometry" />
        </mxCell>
        <mxCell id="_b37jL2RU1yT6n0CQH7f-6" value="Reservar Passagem" style="ellipse;whiteSpace=wrap;html=1;" vertex="1" parent="1">
          <mxGeometry x="355" y="560" width="140" height="70" as="geometry" />
        </mxCell>
        <mxCell id="_b37jL2RU1yT6n0CQH7f-7" value="Gerenciar Reservas" style="ellipse;whiteSpace=wrap;html=1;" vertex="1" parent="1">
          <mxGeometry x="355" y="670" width="140" height="70" as="geometry" />
        </mxCell>
        <mxCell id="_b37jL2RU1yT6n0CQH7f-8" value="Realizar Check-in" style="ellipse;whiteSpace=wrap;html=1;" vertex="1" parent="1">
          <mxGeometry x="350" y="780" width="140" height="70" as="geometry" />
        </mxCell>
        <mxCell id="_b37jL2RU1yT6n0CQH7f-9" value="Atender Check-in" style="ellipse;whiteSpace=wrap;html=1;" vertex="1" parent="1">
          <mxGeometry x="675" y="665" width="140" height="70" as="geometry" />
        </mxCell>
        <mxCell id="_b37jL2RU1yT6n0CQH7f-14" value="" style="endArrow=none;html=1;rounded=0;entryX=0;entryY=0.5;entryDx=0;entryDy=0;" edge="1" parent="1" target="_b37jL2RU1yT6n0CQH7f-5">
          <mxGeometry width="50" height="50" relative="1" as="geometry">
            <mxPoint x="120" y="490" as="sourcePoint" />
            <mxPoint x="240" y="470" as="targetPoint" />
          </mxGeometry>
        </mxCell>
        <mxCell id="_b37jL2RU1yT6n0CQH7f-20" value="" style="endArrow=classic;html=1;rounded=0;exitX=1;exitY=0.5;exitDx=0;exitDy=0;entryX=0.5;entryY=1;entryDx=0;entryDy=0;" edge="1" parent="1" source="_b37jL2RU1yT6n0CQH7f-8" target="_b37jL2RU1yT6n0CQH7f-9">
          <mxGeometry width="50" height="50" relative="1" as="geometry">
            <mxPoint x="425" y="780" as="sourcePoint" />
            <mxPoint x="425" y="740" as="targetPoint" />
          </mxGeometry>
        </mxCell>
        <mxCell id="_b37jL2RU1yT6n0CQH7f-21" value="&amp;lt;&amp;lt;includes&amp;gt;&amp;gt;" style="text;html=1;align=center;verticalAlign=middle;resizable=0;points=[];autosize=1;strokeColor=none;fillColor=none;fontSize=9;rotation=-15;" vertex="1" parent="1">
          <mxGeometry x="580" y="780" width="80" height="20" as="geometry" />
        </mxCell>
        <mxCell id="_b37jL2RU1yT6n0CQH7f-22" value="" style="endArrow=none;html=1;rounded=0;entryX=0.5;entryY=0;entryDx=0;entryDy=0;" edge="1" parent="1" target="_b37jL2RU1yT6n0CQH7f-9">
          <mxGeometry width="50" height="50" relative="1" as="geometry">
            <mxPoint x="745" y="550" as="sourcePoint" />
            <mxPoint x="720" y="665" as="targetPoint" />
          </mxGeometry>
        </mxCell>
        <mxCell id="_b37jL2RU1yT6n0CQH7f-23" value="" style="endArrow=none;html=1;rounded=0;entryX=0;entryY=0.5;entryDx=0;entryDy=0;" edge="1" parent="1" target="_b37jL2RU1yT6n0CQH7f-6">
          <mxGeometry width="50" height="50" relative="1" as="geometry">
            <mxPoint x="120" y="500" as="sourcePoint" />
            <mxPoint x="355" y="500" as="targetPoint" />
          </mxGeometry>
        </mxCell>
        <mxCell id="_b37jL2RU1yT6n0CQH7f-24" value="" style="endArrow=none;html=1;rounded=0;entryX=0;entryY=0.5;entryDx=0;entryDy=0;" edge="1" parent="1" target="_b37jL2RU1yT6n0CQH7f-8">
          <mxGeometry width="50" height="50" relative="1" as="geometry">
            <mxPoint x="120" y="519.43" as="sourcePoint" />
            <mxPoint x="355" y="519.43" as="targetPoint" />
          </mxGeometry>
        </mxCell>
        <mxCell id="_b37jL2RU1yT6n0CQH7f-25" value="" style="endArrow=classic;html=1;rounded=0;exitX=0.5;exitY=0;exitDx=0;exitDy=0;entryX=0.5;entryY=1;entryDx=0;entryDy=0;" edge="1" parent="1" source="_b37jL2RU1yT6n0CQH7f-7" target="_b37jL2RU1yT6n0CQH7f-6">
          <mxGeometry width="50" height="50" relative="1" as="geometry">
            <mxPoint x="380" y="680" as="sourcePoint" />
            <mxPoint x="430" y="630" as="targetPoint" />
          </mxGeometry>
        </mxCell>
        <mxCell id="_b37jL2RU1yT6n0CQH7f-26" value="&amp;lt;&amp;lt;extends&amp;gt;&amp;gt;" style="text;html=1;align=center;verticalAlign=middle;resizable=0;points=[];autosize=1;strokeColor=none;fillColor=none;fontSize=9;rotation=0;" vertex="1" parent="1">
          <mxGeometry x="425" y="640" width="80" height="20" as="geometry" />
        </mxCell>
      </root>
    </mxGraphModel>
  </diagram>
</mxfile>
